# xmcd CD database file
# Copyright (C) 1996 Ti Kan
#
# Track frame offsets:
# 	182
# 	23642
# 	41510
# 	54575
# 	63117
# 	77790
# 	94947
# 	110310
# 	128772
# 	139030
# 	158925
# 	171442
#
# Disc length: 2483 seconds
#
# Revision: 1
# Processed by: cddbd v1.4b41PL1 Copyright (c) Steve Scherf et al.
# Submitted via: DiscPlay 3.4.1
#
DISCID=9809b10c
DTITLE=Red Sovine - Best of the Best of Red Sovine
DYEAR=1900
DGENRE=
TTITLE0=Teddy Bear
TTITLE1=Giddy-Up-Go
TTITLE2=Girl On The Billboard
TTITLE3=Alabam' (With Minnie Pearl)
TTITLE4=I've Been Down That Road Before
TTITLE5=Daddy's Girl
TTITLE6=Big Joe And Phantom 309
TTITLE7=Little Rosa
TTITLE8=Six Days On The Road
TTITLE9=The Old Pine Tree
TTITLE10=Colorado Cool-Aid
TTITLE11=It'll Come Back
EXTD=
EXTT0=
EXTT1=
EXTT2=
EXTT3=
EXTT4=
EXTT5=
EXTT6=
EXTT7=
EXTT8=
EXTT9=
EXTT10=
EXTT11=
PLAYORDER=
